<mxfile host="app.diagrams.net" agent="Mozilla/5.0 (Windows NT 10.0; Win64; x64) AppleWebKit/537.36 (KHTML, like Gecko) Chrome/131.0.0.0 Safari/537.36" version="24.9.0">
  <diagram name="Страница — 1" id="fPd1bFsiwI1zPbDgvqyk">
    <mxGraphModel dx="954" dy="502" grid="1" gridSize="10" guides="1" tooltips="1" connect="1" arrows="1" fold="1" page="1" pageScale="1" pageWidth="827" pageHeight="1169" math="0" shadow="0">
      <root>
        <mxCell id="0" />
        <mxCell id="1" parent="0" />
        <mxCell id="YrPraihIsLNLXIPn3rXI-8" value="HTTP Requests" style="shape=providedRequiredInterface;html=1;verticalLabelPosition=bottom;sketch=0;" vertex="1" parent="1">
          <mxGeometry x="230" y="185" width="20" height="20" as="geometry" />
        </mxCell>
        <mxCell id="YrPraihIsLNLXIPn3rXI-9" value="Client" style="html=1;dropTarget=0;whiteSpace=wrap;" vertex="1" parent="1">
          <mxGeometry x="60" y="170" width="120" height="50" as="geometry" />
        </mxCell>
        <mxCell id="YrPraihIsLNLXIPn3rXI-10" value="" style="shape=module;jettyWidth=8;jettyHeight=4;" vertex="1" parent="YrPraihIsLNLXIPn3rXI-9">
          <mxGeometry x="1" width="20" height="20" relative="1" as="geometry">
            <mxPoint x="-27" y="7" as="offset" />
          </mxGeometry>
        </mxCell>
        <mxCell id="YrPraihIsLNLXIPn3rXI-11" value="Database&lt;div&gt;(SQLite)&lt;/div&gt;" style="html=1;dropTarget=0;whiteSpace=wrap;" vertex="1" parent="1">
          <mxGeometry x="730" y="170" width="120" height="50" as="geometry" />
        </mxCell>
        <mxCell id="YrPraihIsLNLXIPn3rXI-12" value="" style="shape=module;jettyWidth=8;jettyHeight=4;" vertex="1" parent="YrPraihIsLNLXIPn3rXI-11">
          <mxGeometry x="1" width="20" height="20" relative="1" as="geometry">
            <mxPoint x="-27" y="7" as="offset" />
          </mxGeometry>
        </mxCell>
        <mxCell id="YrPraihIsLNLXIPn3rXI-5" value="" style="shape=folder;fontStyle=1;spacingTop=10;tabWidth=100;tabHeight=20;tabPosition=left;html=1;whiteSpace=wrap;" vertex="1" parent="1">
          <mxGeometry x="300" y="130" width="330" height="110" as="geometry" />
        </mxCell>
        <mxCell id="YrPraihIsLNLXIPn3rXI-6" value="Server" style="text;align=center;fontStyle=1;verticalAlign=middle;spacingLeft=3;spacingRight=3;strokeColor=none;rotatable=0;points=[[0,0.5],[1,0.5]];portConstraint=eastwest;html=1;" vertex="1" parent="1">
          <mxGeometry x="304" y="130" width="96" height="20" as="geometry" />
        </mxCell>
        <mxCell id="YrPraihIsLNLXIPn3rXI-15" value="Application&amp;nbsp;&lt;div&gt;server&lt;/div&gt;" style="html=1;dropTarget=0;whiteSpace=wrap;" vertex="1" parent="1">
          <mxGeometry x="490" y="170" width="120" height="50" as="geometry" />
        </mxCell>
        <mxCell id="YrPraihIsLNLXIPn3rXI-16" value="" style="shape=module;jettyWidth=8;jettyHeight=4;" vertex="1" parent="YrPraihIsLNLXIPn3rXI-15">
          <mxGeometry x="1" width="20" height="20" relative="1" as="geometry">
            <mxPoint x="-27" y="7" as="offset" />
          </mxGeometry>
        </mxCell>
        <mxCell id="YrPraihIsLNLXIPn3rXI-13" value="Web-server&lt;div&gt;(flask)&lt;/div&gt;" style="html=1;dropTarget=0;whiteSpace=wrap;" vertex="1" parent="1">
          <mxGeometry x="320" y="170" width="120" height="50" as="geometry" />
        </mxCell>
        <mxCell id="YrPraihIsLNLXIPn3rXI-14" value="" style="shape=module;jettyWidth=8;jettyHeight=4;" vertex="1" parent="YrPraihIsLNLXIPn3rXI-13">
          <mxGeometry x="1" width="20" height="20" relative="1" as="geometry">
            <mxPoint x="-27" y="7" as="offset" />
          </mxGeometry>
        </mxCell>
        <mxCell id="YrPraihIsLNLXIPn3rXI-17" value="" style="line;strokeWidth=1;fillColor=none;align=left;verticalAlign=middle;spacingTop=-1;spacingLeft=3;spacingRight=3;rotatable=0;labelPosition=right;points=[];portConstraint=eastwest;strokeColor=inherit;" vertex="1" parent="1">
          <mxGeometry x="180" y="191" width="50" height="8" as="geometry" />
        </mxCell>
        <mxCell id="YrPraihIsLNLXIPn3rXI-18" value="" style="line;strokeWidth=1;fillColor=none;align=left;verticalAlign=middle;spacingTop=-1;spacingLeft=3;spacingRight=3;rotatable=0;labelPosition=right;points=[];portConstraint=eastwest;strokeColor=inherit;" vertex="1" parent="1">
          <mxGeometry x="250" y="191" width="70" height="8" as="geometry" />
        </mxCell>
        <mxCell id="YrPraihIsLNLXIPn3rXI-19" value="" style="line;strokeWidth=1;fillColor=none;align=left;verticalAlign=middle;spacingTop=-1;spacingLeft=3;spacingRight=3;rotatable=0;labelPosition=right;points=[];portConstraint=eastwest;strokeColor=inherit;" vertex="1" parent="1">
          <mxGeometry x="440" y="191" width="50" height="8" as="geometry" />
        </mxCell>
        <mxCell id="YrPraihIsLNLXIPn3rXI-20" value="" style="line;strokeWidth=1;fillColor=none;align=left;verticalAlign=middle;spacingTop=-1;spacingLeft=3;spacingRight=3;rotatable=0;labelPosition=right;points=[];portConstraint=eastwest;strokeColor=inherit;" vertex="1" parent="1">
          <mxGeometry x="610" y="191" width="120" height="8" as="geometry" />
        </mxCell>
        <mxCell id="YrPraihIsLNLXIPn3rXI-21" value="Data Access" style="shape=providedRequiredInterface;html=1;verticalLabelPosition=bottom;sketch=0;" vertex="1" parent="1">
          <mxGeometry x="670" y="185" width="20" height="20" as="geometry" />
        </mxCell>
      </root>
    </mxGraphModel>
  </diagram>
</mxfile>
